# Wavefront OBJ file
# Exported by Misfit Model 3D 1.3.8
# Wed Aug 19 08:19:07 2015

mtllib arrowhat.mtl

# 82 Vertices
v -0.0361 0.408634 -1.7387
v -0.033899 0.017508 -1.94996
v -0.033899 0.017508 -1.50875
v -0.0361 0.408634 -1.31703
v 0.0389 0.408634 -1.7387
v 0.0389 0.408634 -1.31703
v 0.039 0.017508 -1.50875
v 0.039 0.017508 -1.94996
v -0.0361 0.408634 -1.31703
v -0.033899 0.017508 -1.50875
v 0.039 0.017508 -1.50875
v 0.0389 0.408634 -1.31703
v -0.033899 0.017508 -1.50875
v -0.033899 0.017508 -1.94996
v 0.039 0.017508 -1.94996
v 0.039 0.017508 -1.50875
v -0.033899 0.017508 -1.94996
v -0.0361 0.408634 -1.7387
v 0.0389 0.408634 -1.7387
v 0.039 0.017508 -1.94996
v 0.0375 0.49125 -1.7387
v 0.0366 0.925158 -1.94996
v 0.0366 0.925158 -1.50875
v 0.0375 0.49125 -1.31703
v -0.0375 0.49125 -1.7387
v -0.0375 0.49125 -1.31703
v -0.0362 0.925158 -1.50875
v -0.0362 0.925158 -1.94996
v 0.0375 0.49125 -1.31703
v 0.0366 0.925158 -1.50875
v -0.0362 0.925158 -1.50875
v -0.0375 0.49125 -1.31703
v 0.0366 0.925158 -1.50875
v 0.0366 0.925158 -1.94996
v -0.0362 0.925158 -1.94996
v -0.0362 0.925158 -1.50875
v 0.0366 0.925158 -1.94996
v 0.0375 0.49125 -1.7387
v -0.0375 0.49125 -1.7387
v -0.0362 0.925158 -1.94996
v 0.0625 0.50625 1.04996
v 0.0625 0.9 1.04996
v 0.0625 0.45 1.94996
v 0.0625 0.39375 1.04996
v 0.0625 0.0 1.04996
v -0.0625 0.45 1.94996
v -0.0625 0.9 1.04996
v -0.0625 0.50625 1.04996
v -0.0625 0.39375 1.04996
v -0.0625 0.0 1.04996
v 0.0625 0.0 1.04996
v 0.0625 0.45 1.94996
v -0.0625 0.45 1.94996
v -0.0625 0.0 1.04996
v 0.0625 0.45 1.94996
v 0.0625 0.9 1.04996
v -0.0625 0.9 1.04996
v -0.0625 0.45 1.94996
v 0.0625 0.0 1.04996
v -0.0625 0.0 1.04996
v -0.0625 0.39375 1.04996
v 0.0625 0.39375 1.04996
v -0.0625 0.9 1.04996
v 0.0625 0.9 1.04996
v 0.0625 0.50625 1.04996
v -0.0625 0.50625 1.04996
v 0.0375 0.40875 1.04996
v 0.0375 0.49125 1.04996
v -0.0375 0.40875 1.04996
v -0.0375 0.49125 1.04996
v 0.0375 0.40875 1.04996
v 0.0375 0.49125 1.04996
v -0.0375 0.40875 1.04996
v -0.0361 0.408634 -1.31703
v 0.0389 0.408634 -1.31703
v 0.0375 0.40875 1.04996
v -0.0375 0.49125 1.04996
v -0.0375 0.40875 1.04996
v 0.0375 0.49125 1.04996
v 0.0375 0.49125 -1.31703
v -0.0375 0.49125 -1.31703
v -0.0375 0.49125 1.04996

# 168 Texture Coordinates
vt 0.727617 0.142919
vt 0.781981 0.243569
vt 0.668442 0.243569
vt 0.668442 0.243569
vt 0.619106 0.142919
vt 0.727617 0.142919
vt 0.727617 0.365502
vt 0.619106 0.365502
vt 0.668442 0.264852
vt 0.668442 0.264852
vt 0.781981 0.264852
vt 0.727617 0.365502
vt 0.610584 0.311136
vt 0.509934 0.310794
vt 0.509934 0.299542
vt 0.509934 0.299542
vt 0.610584 0.299556
vt 0.610584 0.311136
vt 0.371889 0.35643
vt 0.258351 0.35643
vt 0.258351 0.345178
vt 0.258351 0.345178
vt 0.371889 0.345178
vt 0.371889 0.35643
vt 0.610584 0.329483
vt 0.509934 0.329826
vt 0.509934 0.318246
vt 0.509934 0.318246
vt 0.610584 0.318231
vt 0.610584 0.329483
vt 0.727617 0.386762
vt 0.781981 0.498421
vt 0.668442 0.498421
vt 0.668442 0.498421
vt 0.619106 0.386762
vt 0.727617 0.386762
vt 0.727617 0.121659
vt 0.619106 0.121659
vt 0.668442 0.01
vt 0.668442 0.01
vt 0.781981 0.01
vt 0.727617 0.121659
vt 0.26023 0.486841
vt 0.371889 0.486974
vt 0.371889 0.498227
vt 0.371889 0.498227
vt 0.26023 0.498421
vt 0.26023 0.486841
vt 0.497045 0.43438
vt 0.610584 0.43438
vt 0.610584 0.445632
vt 0.610584 0.445632
vt 0.497045 0.445632
vt 0.497045 0.43438
vt 0.377015 0.318588
vt 0.488675 0.318455
vt 0.488675 0.330035
vt 0.488675 0.330035
vt 0.377015 0.329841
vt 0.377015 0.318588
vt 0.01 0.62103
vt 0.01 0.519705
vt 0.2416 0.635505
vt 0.01 0.64998
vt 0.01 0.62103
vt 0.2416 0.635505
vt 0.01 0.751305
vt 0.01 0.64998
vt 0.2416 0.635505
vt 0.2416 0.8742
vt 0.01 0.99
vt 0.01 0.888675
vt 0.2416 0.8742
vt 0.01 0.888675
vt 0.01 0.859725
vt 0.01 0.7584
vt 0.2416 0.8742
vt 0.01 0.859725
vt 0.378984 0.452727
vt 0.610584 0.452727
vt 0.610584 0.472027
vt 0.610584 0.472027
vt 0.378984 0.472027
vt 0.378984 0.452727
vt 0.378984 0.33713
vt 0.610584 0.33713
vt 0.610584 0.35643
vt 0.610584 0.35643
vt 0.378984 0.35643
vt 0.378984 0.33713
vt 0.509934 0.318246
vt 0.509934 0.329826
vt 0.488675 0.330035
vt 0.488675 0.330035
vt 0.488675 0.318455
vt 0.509934 0.318246
vt 0.610584 0.479121
vt 0.610584 0.498421
vt 0.509259 0.498421
vt 0.509259 0.498421
vt 0.509259 0.479121
vt 0.610584 0.479121
vt 0.378984 0.498421
vt 0.378984 0.479121
vt 0.480309 0.479121
vt 0.480309 0.479121
vt 0.480309 0.498421
vt 0.378984 0.498421
vt 0.480309 0.479121
vt 0.509259 0.479121
vt 0.505399 0.482981
vt 0.505399 0.482981
vt 0.484169 0.482981
vt 0.480309 0.479121
vt 0.509259 0.479121
vt 0.509259 0.498421
vt 0.505399 0.494561
vt 0.505399 0.494561
vt 0.505399 0.482981
vt 0.509259 0.479121
vt 0.509259 0.498421
vt 0.480309 0.498421
vt 0.484169 0.494561
vt 0.484169 0.494561
vt 0.505399 0.494561
vt 0.509259 0.498421
vt 0.480309 0.498421
vt 0.480309 0.479121
vt 0.484169 0.482981
vt 0.484169 0.482981
vt 0.484169 0.494561
vt 0.480309 0.498421
vt 0.01 0.365532
vt 0.619106 0.365502
vt 0.619106 0.386762
vt 0.619106 0.386762
vt 0.01 0.386762
vt 0.01 0.365532
vt 0.8578 0.531495
vt 0.248695 0.531285
vt 0.248695 0.519705
vt 0.248695 0.519705
vt 0.8578 0.519915
vt 0.8578 0.531495
vt 0.01 0.121659
vt 0.619106 0.121659
vt 0.619106 0.142919
vt 0.619106 0.142919
vt 0.01 0.142889
vt 0.01 0.121659
vt 0.248695 0.552778
vt 0.8578 0.552778
vt 0.8578 0.564358
vt 0.8578 0.564358
vt 0.248695 0.564358
vt 0.248695 0.552778
vt 0.727617 0.365502
vt 0.727617 0.386762
vt 0.619106 0.386762
vt 0.619106 0.386762
vt 0.619106 0.365502
vt 0.727617 0.365502
vt 0.727617 0.121659
vt 0.727617 0.142919
vt 0.619106 0.142919
vt 0.619106 0.142919
vt 0.619106 0.121659
vt 0.727617 0.121659

# 168 Vertex Normals
vn -0.999956 -0.009399 -0.0
vn -0.999984 -0.005627 -0.0
vn -0.999984 -0.005627 -0.0
vn -0.999984 -0.005627 -0.0
vn -0.999936 -0.011292 -0.000118
vn -0.999956 -0.009399 -0.0
vn 0.999963 0.0086 0.0
vn 0.999935 0.011381 0.000197
vn 1.0 0.000256 0.0
vn 1.0 0.000256 0.0
vn 1.0 0.000256 0.0
vn 0.999963 0.0086 0.0
vn 0.0 -0.440142 0.897928
vn 0.0 -0.440142 0.897928
vn 0.0 -0.440142 0.897928
vn 0.0 -0.440142 0.897928
vn 0.0 -0.440142 0.897928
vn 0.0 -0.440142 0.897928
vn 0.0 -1.0 0.0
vn 0.0 -1.0 0.0
vn 0.0 -1.0 0.0
vn 0.0 -1.0 0.0
vn -0.0 -1.0 0.0
vn 0.0 -1.0 0.0
vn 0.0 0.475239 -0.879857
vn 0.0 0.245096 -0.969499
vn 0.0 0.245096 -0.969499
vn 0.0 0.245096 -0.969499
vn -0.0 0.475239 -0.879857
vn 0.0 0.475239 -0.879857
vn 0.999975 0.007031 0.0
vn 0.999998 0.002074 0.0
vn 0.999998 0.002074 0.0
vn 0.999998 0.002074 0.0
vn 0.999944 0.010581 0.000118
vn 0.999975 0.007031 0.0
vn -0.999976 -0.006974 -0.0
vn -0.999947 -0.010297 -0.0
vn -0.999996 0.002996 -0.0
vn -0.999996 0.002996 -0.0
vn -0.999996 0.002996 -0.0
vn -0.999976 -0.006974 -0.0
vn -0.0 0.404152 0.914692
vn -0.0 0.404152 0.914692
vn -0.0 0.404152 0.914692
vn -0.0 0.404152 0.914692
vn -0.0 0.404152 0.914692
vn -0.0 0.404152 0.914692
vn -0.0 1.0 0.0
vn 0.0 1.0 0.0
vn -0.0 1.0 0.0
vn -0.0 1.0 0.0
vn -0.0 1.0 0.0
vn -0.0 1.0 0.0
vn -0.0 -0.43775 -0.899097
vn -0.0 -0.224614 -0.974448
vn -0.0 -0.224614 -0.974448
vn -0.0 -0.224614 -0.974448
vn 0.0 -0.43775 -0.899097
vn -0.0 -0.43775 -0.899097
vn 1.0 0.0 0.0
vn 1.0 0.0 0.0
vn 1.0 0.0 0.0
vn 1.0 0.0 0.0
vn 1.0 0.0 0.0
vn 1.0 0.0 0.0
vn 1.0 0.0 0.0
vn 1.0 0.0 0.0
vn 1.0 0.0 0.0
vn -1.0 0.0 -0.0
vn -1.0 0.0 -0.0
vn -1.0 0.0 -0.0
vn -1.0 0.0 -0.0
vn -1.0 0.0 -0.0
vn -1.0 0.0 -0.0
vn -1.0 -0.0 -0.0
vn -1.0 0.0 -0.0
vn -1.0 0.0 -0.0
vn -0.0 -0.894427 0.447214
vn -0.0 -0.894427 0.447214
vn -0.0 -0.894427 0.447214
vn -0.0 -0.894427 0.447214
vn 0.0 -0.894427 0.447214
vn -0.0 -0.894427 0.447214
vn 0.0 0.894427 0.447214
vn 0.0 0.894427 0.447214
vn 0.0 0.894427 0.447214
vn 0.0 0.894427 0.447214
vn -0.0 0.894427 0.447214
vn 0.0 0.894427 0.447214
vn 0.0 0.245096 -0.969499
vn 0.0 0.245096 -0.969499
vn -0.0 -0.224614 -0.974448
vn -0.0 -0.224614 -0.974448
vn -0.0 -0.224614 -0.974448
vn 0.0 0.245096 -0.969499
vn 0.0 0.0 -1.0
vn 0.0 -0.0 -1.0
vn 0.0 -0.0 -1.0
vn 0.0 -0.0 -1.0
vn 0.0 -0.000001 -1.0
vn 0.0 0.0 -1.0
vn 0.0 0.0 -1.0
vn 0.0 0.0 -1.0
vn 0.0 0.0 -1.0
vn 0.0 0.0 -1.0
vn 0.0 0.000001 -1.0
vn 0.0 0.0 -1.0
vn 0.0 0.0 -1.0
vn 0.0 -0.000001 -1.0
vn 0.0 -0.0 -1.0
vn 0.0 -0.0 -1.0
vn 0.0 0.000001 -1.0
vn 0.0 0.0 -1.0
vn 0.0 -0.000001 -1.0
vn 0.0 -0.0 -1.0
vn 0.0 -0.000001 -1.0
vn 0.0 -0.000001 -1.0
vn 0.0 -0.0 -1.0
vn 0.0 -0.000001 -1.0
vn 0.0 -0.0 -1.0
vn 0.0 0.000001 -1.0
vn 0.0 0.0 -1.0
vn 0.0 0.0 -1.0
vn 0.0 -0.000001 -1.0
vn 0.0 -0.0 -1.0
vn 0.0 0.000001 -1.0
vn 0.0 0.0 -1.0
vn 0.0 0.000001 -1.0
vn 0.0 0.000001 -1.0
vn 0.0 0.0 -1.0
vn 0.0 0.000001 -1.0
vn 0.999964 0.008472 0.000295
vn 0.999935 0.011381 0.000197
vn 0.999944 0.010581 0.000118
vn 0.999944 0.010581 0.000118
vn 1.0 -0.0 0.0
vn 0.999964 0.008472 0.000295
vn -0.0 -1.0 0.000049
vn 0.0 -1.0 0.000049
vn -0.0 -1.0 0.000049
vn -0.0 -1.0 0.000049
vn -0.0 -1.0 0.000049
vn -0.0 -1.0 0.000049
vn -0.999964 -0.008472 -0.000296
vn -0.999947 -0.010297 -0.0
vn -0.999936 -0.011292 -0.000118
vn -0.999936 -0.011292 -0.000118
vn -1.0 -0.0 -0.000592
vn -0.999964 -0.008472 -0.000296
vn 0.0 1.0 0.0
vn -0.0 1.0 0.0
vn 0.0 1.0 0.0
vn 0.0 1.0 0.0
vn 0.0 1.0 0.0
vn 0.0 1.0 0.0
vn 0.999963 0.0086 0.0
vn 0.999975 0.007031 0.0
vn 0.999944 0.010581 0.000118
vn 0.999944 0.010581 0.000118
vn 0.999935 0.011381 0.000197
vn 0.999963 0.0086 0.0
vn -0.999976 -0.006974 -0.0
vn -0.999956 -0.009399 -0.0
vn -0.999936 -0.011292 -0.000118
vn -0.999936 -0.011292 -0.000118
vn -0.999947 -0.010297 -0.0
vn -0.999976 -0.006974 -0.0

# ArrowHat12, 56 grouped triangles

usemtl ArrowHat1Mtl
o ArrowHat12
g ArrowHat12

f 1/1/1 2/2/2 3/3/3
f 3/4/4 4/5/5 1/6/6
f 5/7/7 6/8/8 7/9/9
f 7/10/10 8/11/11 5/12/12
f 9/13/13 10/14/14 11/15/15
f 11/16/16 12/17/17 9/18/18
f 13/19/19 14/20/20 15/21/21
f 15/22/22 16/23/23 13/24/24
f 17/25/25 18/26/26 19/27/27
f 19/28/28 20/29/29 17/30/30
f 21/31/31 22/32/32 23/33/33
f 23/34/34 24/35/35 21/36/36
f 25/37/37 26/38/38 27/39/39
f 27/40/40 28/41/41 25/42/42
f 29/43/43 30/44/44 31/45/45
f 31/46/46 32/47/47 29/48/48
f 33/49/49 34/50/50 35/51/51
f 35/52/52 36/53/53 33/54/54
f 37/55/55 38/56/56 39/57/57
f 39/58/58 40/59/59 37/60/60
f 41/61/61 42/62/62 43/63/63
f 44/64/64 41/65/65 43/66/66
f 45/67/67 44/68/68 43/69/69
f 46/70/70 47/71/71 48/72/72
f 46/73/73 48/74/74 49/75/75
f 50/76/76 46/77/77 49/78/78
f 51/79/79 52/80/80 53/81/81
f 53/82/82 54/83/83 51/84/84
f 55/85/85 56/86/86 57/87/87
f 57/88/88 58/89/89 55/90/90
f 19/91/91 18/92/92 39/93/93
f 39/94/94 38/95/95 19/96/96
f 59/97/97 60/98/98 61/99/99
f 61/100/100 62/101/101 59/102/102
f 63/103/103 64/104/104 65/105/105
f 65/106/106 66/107/107 63/108/108
f 65/109/109 62/110/110 67/111/111
f 67/112/112 68/113/113 65/114/114
f 62/115/115 61/116/116 69/117/117
f 69/118/118 67/119/119 62/120/120
f 61/121/121 66/122/122 70/123/123
f 70/124/124 69/125/125 61/126/126
f 66/127/127 65/128/128 68/129/129
f 68/130/130 70/131/131 66/132/132
f 71/133/133 6/134/134 24/135/135
f 24/136/136 72/137/137 71/138/138
f 73/139/139 74/140/140 75/141/141
f 75/142/142 76/143/143 73/144/144
f 77/145/145 26/146/146 4/147/147
f 4/148/148 78/149/149 77/150/150
f 79/151/151 80/152/152 81/153/153
f 81/154/154 82/155/155 79/156/156
f 5/157/157 21/158/158 24/159/159
f 24/160/160 6/161/161 5/162/162
f 25/163/163 1/164/164 4/165/165
f 4/166/166 26/167/167 25/168/168
